<?xml version="1.0" encoding="UTF-8"?><svg id="Layer_2" xmlns="http://www.w3.org/2000/svg" viewBox="0 0 1224.93 440.69"><defs><style>.cls-1{stroke-width:0px;}</style></defs><g id="Layer_1-2"><path class="cls-1" d="m65.54.71v364.54h371.76V.71H65.54Zm183.97,338.3c-86.72,0-157.02-70.31-157.02-157.03,0-76.77,55.1-140.68,127.92-154.32-27.35,23.09-44.73,57.64-44.73,96.24,0,69.54,56.38,125.91,125.92,125.91,43.5,0,81.83-22.05,104.46-55.58-6.24,80.99-73.95,144.78-156.55,144.78Z"/><polygon class="cls-1" points="437.3 397.75 437.3 440.69 0 440.69 0 0 38.42 0 38.42 397.75 437.3 397.75"/><path class="cls-1" d="m596.9,180c-4.04,0-7.73-1.01-11.08-3.03-3.35-2.02-6.03-4.7-8.05-8.05-2.02-3.35-3.03-7.04-3.03-11.08v-70.44c0-4.04,1.01-7.73,3.03-11.08,2.02-3.35,4.7-6.03,8.05-8.05,3.35-2.02,7.04-3.03,11.08-3.03h92.27v21.19h-87.81c-1.7,0-3.05.48-4.06,1.44-1.01.96-1.51,2.34-1.51,4.14v61.2c0,1.7.5,3.05,1.51,4.06,1.01,1.01,2.36,1.51,4.06,1.51h87.81v21.19h-92.27Z"/><path class="cls-1" d="m727.57,180c-4.04,0-7.73-1.01-11.07-3.03-3.35-2.02-6.03-4.7-8.05-8.05-2.02-3.35-3.03-7.04-3.03-11.08v-70.44c0-4.04,1.01-7.73,3.03-11.08,2.02-3.35,4.7-6.03,8.05-8.05,3.35-2.02,7.04-3.03,11.07-3.03h70.44c4.04,0,7.73,1.01,11.07,3.03,3.35,2.02,6.03,4.7,8.05,8.05,2.02,3.35,3.03,7.04,3.03,11.08v70.44c0,4.04-1.01,7.73-3.03,11.08-2.02,3.35-4.7,6.03-8.05,8.05-3.35,2.02-7.04,3.03-11.07,3.03h-70.44Zm.8-21.19h68.52c.53,0,1.01-.18,1.43-.56.42-.37.64-.82.64-1.35v-68.52c0-.53-.21-.98-.64-1.36-.43-.37-.9-.56-1.43-.56h-68.52c-.53,0-.98.19-1.35.56s-.56.82-.56,1.36v68.52c0,.53.18.98.56,1.35.37.37.82.56,1.35.56Z"/><path class="cls-1" d="m838.01,180v-114.74h92.43c4.04,0,7.75,1.01,11.16,3.03,3.4,2.02,6.11,4.7,8.13,8.05,2.02,3.35,3.03,7.04,3.03,11.08v70.44c0,4.04-1.01,7.73-3.03,11.08-2.02,3.35-4.73,6.03-8.13,8.05-3.4,2.02-7.12,3.03-11.16,3.03h-92.43Zm22.79-21.19h68.69c.53,0,1.01-.18,1.43-.56.42-.37.64-.82.64-1.35v-68.52c0-.53-.21-.98-.64-1.36-.43-.37-.9-.56-1.43-.56h-68.69c-.53,0-.98.19-1.35.56-.37.37-.56.82-.56,1.36v68.52c0,.53.19.98.56,1.35.37.37.82.56,1.35.56Z"/><path class="cls-1" d="m970.91,180v-114.74h105.66v21.19h-84.46v25.5h67.89v21.36h-67.89v25.5h84.46v21.19h-105.66Z"/><path class="cls-1" d="m574.91,371.23v-114.9h21.03v93.7h93.7v21.19h-114.74Z"/><path class="cls-1" d="m709.65,368.2c-3.35-2.02-6.03-4.7-8.05-8.05-2.02-3.35-3.03-7.04-3.03-11.08v-92.59h21.04v91.63c0,.53.18.98.56,1.35.37.37.82.56,1.35.56h68.52c.53,0,1.01-.18,1.43-.56.42-.37.64-.82.64-1.35v-91.63h21.19v92.59c0,4.04-1.01,7.73-3.03,11.08-2.02,3.35-4.7,6.03-8.05,8.05-3.35,2.02-7.04,3.03-11.07,3.03h-70.44c-4.04,0-7.73-1.01-11.07-3.03Z"/><path class="cls-1" d="m830.84,371.23v-114.74h23.11l41.59,49.56,41.43-49.56h23.27v114.74h-21.19v-84.14l-43.51,51.79-43.66-51.63v83.98h-21.04Z"/><path class="cls-1" d="m1000.55,371.23c-4.04,0-7.73-1.01-11.07-3.03-3.35-2.02-6.03-4.7-8.05-8.05-2.02-3.35-3.03-7.04-3.03-11.08v-70.44c0-4.04,1.01-7.73,3.03-11.08,2.02-3.35,4.7-6.03,8.05-8.05,3.35-2.02,7.04-3.03,11.07-3.03h70.44c4.04,0,7.73,1.01,11.07,3.03,3.35,2.02,6.03,4.7,8.05,8.05,2.02,3.35,3.03,7.04,3.03,11.08v70.44c0,4.04-1.01,7.73-3.03,11.08-2.02,3.35-4.7,6.03-8.05,8.05-3.35,2.02-7.04,3.03-11.07,3.03h-70.44Zm.8-21.19h68.52c.53,0,1.01-.18,1.43-.56.42-.37.64-.82.64-1.35v-68.52c0-.53-.21-.98-.64-1.35-.43-.37-.9-.56-1.43-.56h-68.52c-.53,0-.98.19-1.35.56-.37.37-.56.82-.56,1.35v68.52c0,.53.18.98.56,1.35.37.37.82.56,1.35.56Z"/><path class="cls-1" d="m1132.34,371.23c-4.04,0-7.73-1.01-11.08-3.03-3.35-2.02-6.03-4.7-8.05-8.05-2.02-3.35-3.03-7.04-3.03-11.08v-8.76h21.03v7.81c0,.53.19.98.56,1.35.37.37.82.56,1.35.56h68.69c.53,0,.98-.18,1.35-.56s.56-.82.56-1.35v-21.83c0-.53-.19-.96-.56-1.27-.37-.32-.82-.48-1.35-.48h-69.48c-4.04,0-7.73-1.01-11.08-3.03-3.35-2.02-6.03-4.7-8.05-8.05-2.02-3.35-3.03-7.09-3.03-11.23v-23.59c0-4.04,1.01-7.73,3.03-11.08,2.02-3.35,4.7-6.03,8.05-8.05,3.35-2.02,7.04-3.03,11.08-3.03h70.44c4.04,0,7.73,1.01,11.08,3.03s6.03,4.7,8.05,8.05c2.02,3.35,3.03,7.04,3.03,11.08v8.76h-21.19v-7.81c0-.53-.19-.98-.56-1.35-.37-.37-.82-.56-1.35-.56h-68.69c-.53,0-.98.19-1.35.56s-.56.82-.56,1.35v21.83c0,.53.19.96.56,1.27.37.32.82.48,1.35.48h69.64c4.04,0,7.73,1.01,11.08,3.03s6.03,4.7,8.05,8.05c2.02,3.35,3.03,7.09,3.03,11.24v23.58c0,4.04-1.01,7.73-3.03,11.08-2.02,3.35-4.7,6.03-8.05,8.05-3.35,2.02-7.04,3.03-11.08,3.03h-70.44Z"/></g></svg>